# xmcd
#
# Track frame offsets:
#	150
#	14348
#	28612
#	42733
#	56373
#	70141
#	83885
#	98467
#	114134
#	129142
#	143069
#	157786
#	172085
#	186864
#	200347
#	215771
#	229440
#	244363
#
# Disc length: 3452 seconds
#
# Revision: 1
# Processed by: cddbd v1.5.2PL0 Copyright (c) Steve Scherf et al.
# Submitted via: audiograbber 1.83.01
#
DISCID=f30d7a12
DTITLE=FORRÓ NA VEIA - Eu tenho forró na veia
DYEAR=1900
DGENRE=FORRÓ
TTITLE0=COMIGO NÃO
TTITLE1=PUXÃO DE CABELO
TTITLE2=NÃO QUERO ME AMARRAR
TTITLE3=BOM DIGUI BOM
TTITLE4=QUEBRADEIRA
TTITLE5=É FARREAR
TTITLE6=FORRÓ NA VEIA
TTITLE7=PERDÃO
TTITLE8=TROTE
TTITLE9=TÁ PENSANDO O QUE
TTITLE10=TÁ NA CARA
TTITLE11=FEITO COLA
TTITLE12=REBOLE E DANCE
TTITLE13=OU ELE OU EU
TTITLE14=PAR DE CHIFRES
TTITLE15=SEM COMPROMISSO
TTITLE16=SEPARADOS
TTITLE17=SÓ QUERO FICAR (AO VIVO)
EXTD=Gravação - Audi Studio Produções
EXTT0=
EXTT1=
EXTT2=
EXTT3=
EXTT4=
EXTT5=
EXTT6=
EXTT7=
EXTT8=
EXTT9=
EXTT10=
EXTT11=
EXTT12=
EXTT13=
EXTT14=
EXTT15=
EXTT16=
EXTT17=
PLAYORDER=
